<svg height="22" viewBox="0 0 291 22" width="291" xmlns="http://www.w3.org/2000/svg">
<g fill="none" fill-rule="evenodd">
<path d="M10.5986919,-4.36476252e-14 C13.2483649,-4.36476252e-14 15.4418757,0.7975 16.8378892,2.04914286 C17.0376568,2.24871429 17.2366378,2.36264286 17.4080919,2.36264286 C17.8351541,2.36264286 18.2339027,1.79378571 18.2339027,1.48028571 C18.2339027,1.16757143 18.3479432,1.1385 18.7466919,1.1385 C19.117127,1.1385 19.2594811,1.22414286 19.2594811,1.48028571 C19.2594811,1.96428571 19.117127,3.15935714 19.117127,4.554 C19.117127,6.23307143 19.2594811,7.28671429 19.2594811,7.54285714 C19.2594811,7.82728571 19.117127,7.85557143 18.7466919,7.85557143 C18.3479432,7.85557143 18.2339027,7.82728571 18.2339027,7.54285714 C17.8917811,4.09907143 15.3278351,1.30978571 10.7410459,1.30978571 C6.69535946,1.30978571 3.41964324,4.35521429 3.41964324,10.8161429 C3.41964324,16.5935 6.58131892,19.9516429 10.8550865,19.9516429 C14.6443784,19.9516429 17.8068405,17.1348571 18.1772757,13.5763571 C18.2055892,13.2919286 18.2905297,13.2636429 18.7183784,13.2636429 C19.1737541,13.2636429 19.2311676,13.3775714 19.2311676,13.5763571 C19.2311676,13.8615714 18.974773,15.9955714 18.974773,17.6754286 C18.974773,18.5577857 19.0314,18.9561429 19.0314,19.4967143 C19.0314,19.668 18.8607324,19.8094286 18.4902973,19.8094286 C18.1198622,19.8094286 17.9491946,19.7528571 17.9491946,19.4967143 C17.9491946,19.1266429 17.8351541,18.7565714 17.5213459,18.7565714 C17.3223649,18.7565714 17.0942838,18.8705 16.6955351,19.1549286 C14.7867324,20.5786429 12.9345568,21.2614286 10.2856703,21.2614286 C4.27376757,21.2614286 -3.39044108e-14,16.8213571 -3.39044108e-14,10.5882857 C-3.39044108e-14,4.41178571 4.38780811,-4.36476252e-14 10.5986919,-4.36476252e-14 Z M29.2627241,0.683335714 C31.8549835,0.683335714 33.3650376,0.541121429 33.6222186,0.541121429 C33.8211997,0.541121429 33.8778268,0.711621429 33.8778268,1.05340714 C33.8778268,1.42347857 33.7928862,1.59397857 33.6222186,1.59397857 C31.5985889,1.59397857 30.9151322,2.16362143 30.8577186,3.87097857 C30.8010916,5.35126429 30.7161511,10.0757643 30.7161511,14.2031214 C30.7161511,17.5329786 32.9946024,19.4399071 36.6415403,19.4399071 C40.6305997,19.4399071 42.5103024,17.4756214 42.5103024,14.2314071 C42.5103024,11.8687643 42.3679484,5.20905 42.3679484,4.29762143 C42.3679484,2.39147857 41.7694322,1.59397857 39.6050214,1.59397857 C39.4335673,1.59397857 39.3761538,1.39519286 39.3761538,1.13826429 C39.3761538,0.65505 39.4618808,0.541121429 39.6616484,0.541121429 C40.4025186,0.541121429 41.7694322,0.683335714 43.2511727,0.683335714 C44.6188727,0.683335714 46.2146538,0.541121429 46.8414835,0.541121429 C46.9838376,0.541121429 47.0687781,0.711621429 47.0687781,1.02512143 C47.0687781,1.42347857 46.9547376,1.59397857 46.8414835,1.59397857 C44.8752673,1.59397857 44.0203565,2.56197857 44.0203565,4.49719286 C44.0203565,4.96043036 44.0047487,7.07105879 43.9899212,9.32170572 L43.9836622,10.2904466 C43.9727898,12.0122671 43.9637295,13.6903643 43.9637295,14.65805 C43.9637295,18.0169786 41.6844916,21.2611929 35.2455268,21.2611929 C31.3712943,21.2611929 27.696043,19.0981214 27.696043,13.9186929 L27.696043,3.95662143 C27.696043,2.47633571 27.0692132,1.59397857 24.9040159,1.59397857 C24.7042484,1.59397857 24.6476214,1.42347857 24.6476214,1.10997857 C24.6476214,0.683335714 24.7325619,0.541121429 24.960643,0.541121429 C25.5591592,0.541121429 26.8694457,0.683335714 29.2627241,0.683335714 Z M158.681985,0.541514286 C158.795239,0.541514286 158.881753,0.682942857 158.881753,1.0538 C158.881753,1.3948 158.823553,1.59437143 158.652885,1.59437143 C156.972164,1.59437143 155.946585,2.10665714 155.889958,4.41194286 C155.837237,6.58457833 155.807694,11.989605 155.80387,15.2973609 L155.803445,15.9957286 C155.803445,18.3583714 155.861645,19.9235143 155.861645,20.7775857 C155.861645,20.9198 155.547837,20.9763714 155.063361,20.9763714 C154.863594,20.9763714 154.721239,20.8624429 154.607985,20.6919429 C153.853392,19.5930266 150.835214,15.7214003 147.79284,11.9549021 L147.222658,11.2506182 C144.945169,8.44403144 142.732799,5.7977532 141.530288,4.52587143 L141.530288,17.2198714 C141.530288,19.0985143 142.698221,19.7813 144.750164,19.7813 C144.863418,19.7813 144.949145,19.9808714 144.949145,20.2935857 C144.949145,20.5214429 144.863418,20.8341571 144.750164,20.8341571 C144.395835,20.8341571 142.764245,20.7565185 140.927763,20.7497673 L140.676164,20.7493 C138.709948,20.7493 137.684369,20.8341571 137.228207,20.8341571 C137.143266,20.8341571 137.085853,20.5788 137.085853,20.3218714 C137.085853,20.0940143 137.114166,19.7813 137.285621,19.7813 C139.16611,19.7813 140.021021,19.0985143 140.049334,17.2198714 C140.061676,15.9297084 140.084777,13.6660196 140.106913,11.3670637 L140.114666,10.5557309 C140.14025,7.85659229 140.162588,5.26142088 140.162588,4.29801429 C140.162588,3.0173 139.365091,1.59437143 136.772831,1.59437143 C136.658791,1.59437143 136.573064,1.50872857 136.573064,1.08208571 C136.573064,0.598085714 136.715418,0.541514286 136.829458,0.541514286 C137.342248,0.541514286 139.022969,0.682942857 140.590437,0.682942857 C141.188166,0.682942857 141.701742,0.654657143 142.014764,0.654657143 C142.242845,0.654657143 142.356885,0.7403 142.499239,0.9108 C143.752899,2.50501429 146.487512,5.66437143 149.108872,8.76637143 C151.473837,11.5556571 153.667348,14.2318 154.493158,15.5408 L154.493158,4.29801429 C154.493158,2.64722857 154.12351,1.59437143 151.473837,1.59437143 C151.331483,1.59437143 151.245756,1.3948 151.245756,1.0538 C151.245756,0.7403 151.303169,0.541514286 151.530464,0.541514286 C152.357061,0.541514286 153.353539,0.682942857 155.035048,0.682942857 C157.057891,0.682942857 158.225823,0.541514286 158.681985,0.541514286 Z M106.528415,0.114007143 C106.92795,0.114007143 107.012891,0.257007143 107.155245,0.626292857 C107.839488,2.59057857 113.650836,16.7640786 114.733828,18.3582929 C115.417285,19.41115 115.958388,19.8095071 117.04138,19.8095071 C117.212047,19.8095071 117.269461,20.0373643 117.269461,20.2942929 C117.269461,20.6352929 117.183734,20.86315 116.984753,20.86315 C116.272196,20.86315 115.104264,20.7492214 112.825026,20.7492214 C110.602415,20.7492214 109.121461,20.86315 108.437218,20.86315 C108.26655,20.86315 108.238236,20.6918643 108.238236,20.3508643 C108.238236,20.0090786 108.294864,19.8095071 108.437218,19.8095071 C110.488374,19.8095071 111.001164,19.3828643 111.001164,18.3300071 C111.001164,18.10215 110.944536,17.7894357 110.830496,17.5325071 L110.756577,17.3477834 C110.472053,16.6360006 109.815499,14.9895071 109.064047,13.1780786 C108.466318,13.2063643 107.098618,13.2637214 105.616877,13.2637214 C104.277491,13.2637214 102.853164,13.2354357 101.941626,13.1497929 C101.45715,14.3448643 101.001774,15.34115 100.687966,16.1952214 C100.317531,17.0775786 100.11855,17.7894357 100.11855,18.3582929 C100.11855,19.4402214 100.802007,19.8095071 101.884212,19.8095071 C102.055666,19.8095071 102.112293,20.0373643 102.112293,20.2942929 C102.112293,20.6352929 102.027353,20.86315 101.827585,20.86315 C101.115028,20.86315 100.488985,20.7492214 98.8932041,20.7492214 C97.2124824,20.7492214 96.4999257,20.86315 96.0728635,20.86315 C95.9014095,20.86315 95.8730959,20.6918643 95.8730959,20.3508643 C95.8730959,20.0090786 95.9305095,19.8095071 96.1294905,19.8095071 C97.1550689,19.8095071 97.7818986,19.0410786 98.5510824,17.6464357 C99.0355581,16.7640786 105.702604,1.53693571 105.844958,0.711935714 C105.958999,0.285292857 106.129666,0.114007143 106.528415,0.114007143 Z M52.7959727,0.541278571 C53.5085295,0.541278571 54.904543,0.683492857 57.1837808,0.683492857 C58.8078754,0.683492857 60.5169105,0.59785 61.6282159,0.59785 C66.3864592,0.59785 68.6373835,3.07442143 68.6373835,5.83463571 C68.6373835,8.05506429 66.8992484,10.2754929 63.2523105,10.8160643 C64.7057376,12.0967786 65.9869241,13.60535 67.2696835,15.0565643 C70.4887727,18.7282071 71.6858051,19.7244929 73.3091132,19.7244929 C73.5938214,19.7244929 73.6795484,19.8667071 73.6795484,20.2650643 C73.6795484,20.7207786 73.6221349,20.8629929 73.3665268,20.8629929 C72.3118484,20.8629929 70.7451673,20.8064214 69.3491538,20.8064214 C68.2661619,20.8064214 66.6137538,19.4117786 64.3628295,16.5085643 L61.4575484,12.7512786 C60.7740916,11.8972071 60.346243,11.4422786 60.1189484,11.3566357 C59.6336862,11.32835 59.120897,11.32835 58.6088943,11.32835 L58.6088943,17.4192071 C58.6088943,18.9277786 59.2066241,19.7810643 61.4001349,19.7810643 C61.5715889,19.7810643 61.6282159,20.0089214 61.6282159,20.2650643 C61.6282159,20.60685 61.5432754,20.8347071 61.3435078,20.8347071 C60.6648824,20.8347071 59.5732177,20.7570265 57.5018971,20.7496284 L57.1837808,20.7490643 C54.9619565,20.7490643 53.4802159,20.8347071 52.7959727,20.8347071 C52.6253051,20.8347071 52.5969916,20.6634214 52.5969916,20.3224214 C52.5969916,19.9806357 52.6536186,19.7810643 52.7959727,19.7810643 C54.8196024,19.7810643 55.5887862,19.1839214 55.5887862,17.5040643 L55.5887862,3.81456429 C55.5887862,2.33427857 54.9619565,1.59413571 52.7676592,1.59413571 C52.6253051,1.59413571 52.5403646,1.42363571 52.5403646,1.11013571 C52.5403646,0.683492857 52.6253051,0.541278571 52.7959727,0.541278571 Z M84.6358828,0.683265692 L84.8189497,0.683492857 C85.7144208,0.683492857 87.1040541,0.66535328 88.5414384,0.642030966 L89.1178807,0.632456341 C91.5215169,0.591666286 93.8924571,0.541278571 94.1639822,0.541278571 C94.5910443,0.541278571 94.7333984,0.769135714 94.7333984,1.08185 C94.7333984,1.90685 94.9040659,5.00963571 94.9040659,5.83463571 C94.9040659,5.94856429 94.6201443,6.06249286 94.2489227,6.06249286 C94.1065686,6.06249286 94.0216281,6.03420714 93.9642146,5.83463571 C93.3090714,3.10270714 92.1694524,1.82199286 88.6648686,1.82199286 C88.0097254,1.82199286 87.2979551,1.87856429 86.5570849,1.90685 C86.5160752,3.1673602 86.4610212,7.53545058 86.4329094,12.0758598 L86.4263003,13.2453432 L86.4263003,13.2453432 L86.4226306,14.023742 C86.4175964,15.1885322 86.4147308,16.3369899 86.4147308,17.4192071 C86.4147308,18.9277786 87.013247,19.7810643 89.2067578,19.7810643 C89.3774254,19.7810643 89.4340524,20.0089214 89.4340524,20.2650643 C89.4340524,20.60685 89.3491119,20.8347071 89.1501308,20.8347071 C88.4715053,20.8347071 87.3791273,20.7570265 85.3077388,20.7496284 L84.9896173,20.7490643 C82.767793,20.7490643 81.2860524,20.8347071 80.6025957,20.8347071 C80.4319281,20.8347071 80.4028281,20.6634214 80.4028281,20.3224214 C80.4028281,19.9806357 80.4602416,19.7810643 80.6025957,19.7810643 C82.6254389,19.7810643 83.3946227,19.1839214 83.3946227,17.5040643 L83.3946227,1.93592143 C82.4547714,1.87856429 81.6564876,1.82199286 81.0013443,1.82199286 C77.4401335,1.82199286 76.3862416,2.96049286 75.6736849,5.83463571 C75.5879578,6.03420714 75.5313308,6.03420714 75.4172903,6.03420714 C75.1325822,6.03420714 74.70552,5.94856429 74.70552,5.83463571 C74.70552,5.00963571 74.9045011,1.90685 74.9045011,1.08185 C74.9045011,0.769135714 75.0759551,0.541278571 75.4172903,0.541278571 C75.862844,0.541278571 81.988404,0.676955153 84.6358828,0.683265692 Z M130.878823,0.541514286 C131.078591,0.541514286 131.106904,0.768585714 131.106904,1.08208571 C131.106904,1.48044286 131.021177,1.59437143 130.878823,1.59437143 C128.685312,1.59437143 128.115109,2.59065714 128.115109,3.92794286 C128.115109,5.86394286 127.944442,11.5556571 127.944442,17.4477286 C127.944442,18.9563 128.542958,19.7813 130.736469,19.7813 C130.907136,19.7813 130.96455,20.0374429 130.96455,20.2935857 C130.96455,20.6353714 130.878823,20.8341571 130.679842,20.8341571 C130.001216,20.8341571 128.909552,20.7571892 126.838231,20.7498589 L126.520115,20.7493 C124.297504,20.7493 122.81655,20.8341571 122.132307,20.8341571 C121.961639,20.8341571 121.933326,20.6636571 121.933326,20.3218714 C121.933326,19.9808714 121.989953,19.7813 122.132307,19.7813 C124.15515,19.7813 124.924334,19.2116571 124.924334,17.5325857 L124.924334,3.81401429 C124.924334,2.33372857 124.269191,1.59437143 122.07568,1.59437143 C121.933326,1.59437143 121.875912,1.42308571 121.875912,1.11037143 C121.875912,0.682942857 121.961639,0.541514286 122.132307,0.541514286 C122.844864,0.541514286 124.240877,0.682942857 126.520115,0.682942857 C128.656212,0.682942857 130.137953,0.541514286 130.878823,0.541514286 Z M105.56025,4.75365 C105.176011,5.52137414 104.164479,7.756451 103.136945,10.1395055 L102.868932,10.7636612 L102.868932,10.7636612 L102.602605,11.3893253 C102.514378,11.5975531 102.426834,11.8051648 102.340374,12.0112929 C103.195285,11.9830071 104.391531,11.9547214 105.56025,11.9547214 C106.699082,11.9547214 107.810388,12.0112929 108.522945,12.0112929 L108.400071,11.7140882 L108.400071,11.7140882 L108.152996,11.114202 C107.039277,8.40392143 105.919124,5.59868571 105.56025,4.75365 Z M60.9164457,1.62242143 C59.8334538,1.62242143 59.1783105,1.67977857 58.8078754,1.73635 C58.7221484,3.67156429 58.6372078,7.54277857 58.6372078,10.3320643 L60.4602835,10.3320643 C63.8791403,10.3320643 65.0753862,8.59563571 65.0753862,6.09077857 C65.0753862,3.55763571 63.8791403,1.62242143 60.9164457,1.62242143 Z" fill="#C03736"></path>
<path d="M192.987346,0.541042857 C193.158014,0.541042857 193.215427,0.740614286 193.215427,1.08161429 C193.215427,1.48075714 193.158014,1.5939 192.902406,1.5939 C191.534706,1.5939 190.4525,2.44797143 189.967238,4.04218571 C189.670151,5.03710497 188.737001,7.89920219 187.734327,10.9387831 L187.482537,11.7013981 C186.640598,14.2492544 185.783164,16.8225801 185.238095,18.4435429 C184.782719,19.8099 184.468911,20.7496143 184.440598,20.9484 C184.383971,21.2901857 183.899495,21.3750429 183.642314,21.3750429 C183.329292,21.3750429 182.930544,21.2611143 182.873916,20.9484 C182.531008,19.7533286 180.16683,12.4100429 178.400381,7.42861429 C177.090095,11.3564 175.807335,15.1419714 174.782544,17.9029714 C174.412108,18.8701857 173.927633,20.2939 173.756965,20.9484 C173.671238,21.2901857 173.329116,21.3750429 173.016095,21.3750429 C172.673973,21.3750429 172.303538,21.2611143 172.218598,20.9484 C171.819062,19.1271143 166.264108,4.01311429 165.750533,3.07418571 C165.23853,2.13525714 164.554287,1.5939 163.443768,1.5939 C163.328941,1.5939 163.272314,1.45247143 163.272314,1.02504286 C163.272314,0.712328571 163.385568,0.541042857 163.528708,0.541042857 C164.212165,0.541042857 165.152803,0.683257143 167.2889,0.683257143 C169.198489,0.683257143 170.594503,0.541042857 171.477727,0.541042857 C171.590981,0.541042857 171.705808,0.654971429 171.705808,0.9394 C171.705808,1.39511429 171.620081,1.5939 171.506041,1.5939 C170.365635,1.5939 169.31253,1.79347143 169.31253,2.76147143 C169.31253,3.18811429 169.454098,3.61475714 169.625552,4.12704286 C169.943236,4.9726398 170.800723,7.63455561 171.674098,10.357638 L171.875689,10.9863286 L171.875689,10.9863286 C172.673973,13.4911857 173.528884,15.9104 173.841906,16.7361857 C174.696816,14.4591857 175.722395,11.2715429 176.71966,8.28268571 C177.745238,5.23725714 178.542735,2.70411429 178.628462,1.93568571 C178.656776,1.56561429 178.942271,1.48075714 179.369333,1.48075714 C179.853808,1.48075714 180.110203,1.67954286 180.138516,1.93568571 C180.365811,3.61475714 183.899495,14.7153286 184.554638,16.7361857 C184.931955,15.5906143 185.360983,14.2724804 185.792285,12.9169759 L186.007897,12.2367353 C187.228175,8.37148507 188.400557,4.38711429 188.400557,3.35861429 C188.400557,2.30575714 187.57396,1.5939 186.035592,1.5939 C185.922338,1.5939 185.807511,1.39511429 185.807511,1.08161429 C185.807511,0.797185714 185.835825,0.541042857 186.093006,0.541042857 C186.748149,0.541042857 188.001022,0.683257143 189.482762,0.683257143 C191.591333,0.683257143 192.730952,0.541042857 192.987346,0.541042857 Z M206.769499,0.000471428573 C213.094424,0.000471428573 218.023335,4.78154286 218.023335,10.7019 C218.023335,17.0489 212.92297,21.2611143 206.769499,21.2611143 C200.672656,21.2611143 195.573078,17.2194 195.573078,10.7019 C195.573078,4.78154286 200.444575,0.000471428573 206.769499,0.000471428573 Z M279.513994,0.512207143 C287.006851,0.512207143 290.539748,5.49363571 290.539748,10.6164929 C290.539748,17.4474929 286.579789,20.9195643 280.140824,20.9195643 C277.719232,20.9195643 275.753016,20.7490643 274.67081,20.7490643 C272.448986,20.7490643 270.967245,20.8347071 270.283002,20.8347071 C270.112335,20.8347071 270.084021,20.6634214 270.084021,20.3224214 C270.084021,19.9806357 270.140648,19.7810643 270.283002,19.7810643 C272.305845,19.7810643 273.075816,19.2122071 273.075816,17.53235 L273.075816,3.81377857 C273.075816,2.33427857 272.419886,1.59413571 270.226375,1.59413571 C270.084021,1.59413571 270.027394,1.42363571 270.027394,1.11013571 C270.027394,0.683492857 270.112335,0.541278571 270.283002,0.541278571 C270.995559,0.541278571 272.391572,0.683492857 274.67081,0.683492857 C275.867056,0.683492857 277.206443,0.512207143 279.513994,0.512207143 Z M257.237394,0.540964286 C257.437161,0.540964286 257.465475,0.768821429 257.465475,1.08153571 C257.465475,1.48067857 257.380534,1.59382143 257.237394,1.59382143 C255.043883,1.59382143 254.47368,2.59010714 254.47368,3.92817857 C254.47368,6.60353571 254.274699,13.4628214 254.274699,15.9676786 C254.274699,18.8701071 255.727339,19.4680357 258.035677,19.4680357 C261.710929,19.4680357 263.647258,17.7606786 263.98938,15.1136071 C264.01848,14.7718214 264.189148,14.71525 264.531269,14.71525 C264.987431,14.71525 265.128999,14.8291786 265.128999,15.0279643 C265.128999,16.02425 264.930018,18.5008214 264.930018,20.3503929 C264.930018,20.8061071 264.73025,20.89175 264.332288,20.89175 C263.595411,20.89175 261.231507,20.8505163 258.721644,20.8124544 L258.001847,20.8017042 C256.198825,20.7752364 254.393299,20.7525445 253.125018,20.7498114 L252.878685,20.7495357 C250.656861,20.7495357 249.175121,20.8343929 248.490877,20.8343929 C248.32021,20.8343929 248.291896,20.6638929 248.291896,20.3221071 C248.291896,19.9811071 248.348523,19.7815357 248.490877,19.7815357 C250.513721,19.7815357 251.283691,19.2118929 251.283691,17.5328214 L251.283691,3.81425 C251.283691,2.33396429 250.627761,1.59382143 248.43425,1.59382143 C248.291896,1.59382143 248.235269,1.42332143 248.235269,1.10982143 C248.235269,0.683178571 248.32021,0.540964286 248.490877,0.540964286 C249.203434,0.540964286 250.599448,0.683178571 252.878685,0.683178571 C255.015569,0.683178571 256.49731,0.540964286 257.237394,0.540964286 Z M222.908989,0.541278571 C223.622332,0.541278571 225.017559,0.683492857 227.297583,0.683492857 C228.920891,0.683492857 230.630713,0.59785 231.741232,0.59785 C236.499475,0.59785 238.750399,3.07442143 238.750399,5.83463571 C238.750399,8.05506429 237.012264,10.2754929 233.365326,10.8160643 C234.818754,12.0967786 236.100726,13.60535 237.382699,15.0565643 C240.602575,18.7282071 241.798821,19.7244929 243.422129,19.7244929 C243.707624,19.7244929 243.792564,19.8667071 243.792564,20.2650643 C243.792564,20.7207786 243.735937,20.8629929 243.479543,20.8629929 C242.425651,20.8629929 240.858183,20.8064214 239.46217,20.8064214 C238.379178,20.8064214 236.727556,19.4117786 234.475845,16.5085643 L231.570564,12.7512786 C230.887108,11.8972071 230.459259,11.4422786 230.231964,11.3566357 C229.747489,11.32835 229.233913,11.32835 228.72191,11.32835 L228.72191,17.4192071 C228.72191,18.9277786 229.320426,19.7810643 231.513937,19.7810643 C231.684605,19.7810643 231.741232,20.0089214 231.741232,20.2650643 C231.741232,20.60685 231.656291,20.8347071 231.45731,20.8347071 C230.743967,20.8347071 229.576035,20.7490643 227.297583,20.7490643 C225.074972,20.7490643 223.594018,20.8347071 222.908989,20.8347071 C222.739108,20.8347071 222.710794,20.6634214 222.710794,20.3224214 C222.710794,19.9806357 222.767421,19.7810643 222.908989,19.7810643 C224.932618,19.7810643 225.701802,19.1839214 225.701802,17.5040643 L225.701802,3.81456429 C225.701802,2.33427857 225.074972,1.59413571 222.880675,1.59413571 C222.739108,1.59413571 222.653381,1.42363571 222.653381,1.11013571 C222.653381,0.683492857 222.739108,0.541278571 222.908989,0.541278571 Z M206.769499,1.19554286 C202.439105,1.19554286 199.134289,4.92375714 199.134289,10.8158286 C199.134289,16.5649 201.840589,20.0660429 206.769499,20.0660429 C211.556056,20.0660429 214.461337,16.1382571 214.461337,10.8158286 C214.461337,5.06675714 211.327975,1.19554286 206.769499,1.19554286 Z M278.74481,1.67977857 C277.605191,1.67977857 276.779381,1.82199286 276.209178,1.96420714 L276.208582,2.13581743 C276.203874,2.98896847 276.172031,5.79242917 276.139633,8.73867405 L276.131537,9.47716392 C276.097886,12.5578827 276.066037,15.6300912 276.066037,16.6507786 C276.066037,19.1839214 277.37711,19.8949929 280.084197,19.8949929 C284.271451,19.8949929 286.977751,17.53235 286.977751,10.84435 C286.977751,6.17642143 284.642672,1.67977857 278.74481,1.67977857 Z M231.029462,1.62242143 C229.947256,1.62242143 229.291326,1.67977857 228.920891,1.73635 C228.835951,3.67156429 228.750224,7.54277857 228.750224,10.3320643 L230.574086,10.3320643 C233.992156,10.3320643 235.189189,8.59563571 235.189189,6.09077857 C235.189189,3.55763571 233.992156,1.62242143 231.029462,1.62242143 Z" fill="#676E6D"></path>
</g>
</svg>